# File created by Blade
# Date/Time:  Wed Jan 21 18:02:28 2015
#---------------------------------------------------------
:version 1.10
:name HOM
:units
  mass 1.0
  length 1.000000
  angle deg
:documentation
     Acclaim Skeleton File
:root
   axis xyz
   order TX TY TZ RX RY RZ
   position 0.000000 0.000000 0.000000
   orientation 0 0 0
:bonedata
   begin
      id 1
      name Spine_dum
      direction 0.000000 1.000000 0.000000
      length 7.067664
      axis 0.0 0.0 0.0 xyz
   end
   begin
      id 2
      name LeftUpLeg_dum
      direction 1.000000 0.000000 0.000000
      length 4.013002
      axis 0.0 0.0 0.0 xyz
   end
   begin
      id 3
      name RightUpLeg_dum
      direction -1.000000 0.000000 0.000000
      length 4.013002
      axis 0.0 0.0 0.0 xyz
   end
   begin
      id 4
      name Spine
      direction 0.000000 1.000000 0.000000
      length 0.000000
      axis 0.0 0.0 0.0 xyz
      dof rx ry rz
   end
   begin
      id 5
      name Spine_dum1
      direction 0.000000 1.000000 0.000000
      length 15.039886
      axis 0.0 0.0 0.0 xyz
   end
   begin
      id 6
      name Spine_dum2
      direction 0.000000 1.000000 0.000000
      length 10.530368
      axis 0.0 0.0 0.0 xyz
   end
   begin
      id 7
      name Spine_dum3
      direction 0.000000 1.000000 0.000000
      length 10.530368
      axis 0.0 0.0 0.0 xyz
   end
   begin
      id 8
      name Head
      direction 0.000000 1.000000 0.000000
      length 4.527550
      axis 0.0 0.0 0.0 xyz
      dof rx ry rz
   end
   begin
      id 9
      name LeftShoulder
      direction 1.000000 0.000000 0.000000
      length 7.028855
      axis 0.0 0.0 -90.0 xyz
      dof rx ry rz
   end
   begin
      id 10
      name LeftArm
      direction 1.000000 0.000000 0.000000
      length 10.797705
      axis 0.0 0.0 -90.0 xyz
      dof rx ry rz
   end
   begin
      id 11
      name LeftForeArm
      direction 1.000000 0.000000 0.000000
      length 7.907442
      axis 0.0 0.0 -90.0 xyz
      dof ry rz rx
   end
   begin
      id 12
      name LeftHand
      direction 0.000000 0.000000 0.000000
      length 0.000000
      axis 0.0 0.0 -90.0 xyz
      dof rx ry rz
   end
   begin
      id 13
      name LeftHand_dum1
      direction 0.000000 0.000000 0.000000
      length 0.000000
      axis 0.0 0.0 -90.0 xyz
   end
   begin
      id 14
      name LeftHand_dum2
      direction 1.000000 0.000000 0.000000
      length 3.937000
      axis 0.0 0.0 -90.0 xyz
   end
   begin
      id 15
      name LeftHandThumb1
      direction 0.000000 0.000000 1.000000
      length 3.937000
      axis 0.0 0.0 -90.0 xyz
      dof rx rz ry
   end
   begin
      id 16
      name RightShoulder
      direction -1.000000 0.000000 0.000000
      length 7.028855
      axis 0.0 0.0 90.0 xyz
      dof rx ry rz
   end
   begin
      id 17
      name RightArm
      direction -1.000000 0.000000 0.000000
      length 10.797705
      axis 0.0 0.0 90.0 xyz
      dof rx ry rz
   end
   begin
      id 18
      name RightForeArm
      direction -1.000000 0.000000 0.000000
      length 7.907442
      axis 0.0 0.0 90.0 xyz
      dof ry rz rx
   end
   begin
      id 19
      name RightHand
      direction 0.000000 0.000000 0.000000
      length 0.000000
      axis 0.0 0.0 90.0 xyz
      dof rx ry rz
   end
   begin
      id 20
      name RightHand_dum1
      direction 0.000000 0.000000 0.000000
      length 0.000000
      axis 0.0 0.0 90.0 xyz
   end
   begin
      id 21
      name RightHand_dum2
      direction -1.000000 0.000000 0.000000
      length 3.937000
      axis 0.0 0.0 90.0 xyz
   end
   begin
      id 22
      name RightHandThumb1
      direction 0.000000 0.000000 1.000000
      length 3.937000
      axis 0.0 0.0 90.0 xyz
      dof rx rz ry
   end
   begin
      id 23
      name LeftUpLeg
      direction 0.000000 -1.000000 0.000000
      length 16.899758
      axis 0.0 0.0 0.0 xyz
      dof rx ry rz
   end
   begin
      id 24
      name LeftLeg
      direction 0.000000 -1.000000 0.000000
      length 17.389183
      axis 0.0 0.0 0.0 xyz
      dof rx ry rz
   end
   begin
      id 25
      name LeftFoot
      direction 0.000000 -0.258819 0.965926
      length 4.924528
      axis 15.0 0.0 0.0 xyz
      dof rx ry rz
   end
   begin
      id 26
      name LeftToeBase
      direction 0.000000 0.000000 1.000000
      length 2.952750
      axis 0.0 0.0 0.0 xyz
      dof rx ry rz
   end
   begin
      id 27
      name RightUpLeg
      direction 0.000000 -1.000000 0.000000
      length 16.899758
      axis 0.0 0.0 0.0 xyz
      dof rx ry rz
   end
   begin
      id 28
      name RightLeg
      direction 0.000000 -1.000000 0.000000
      length 17.389183
      axis 0.0 0.0 0.0 xyz
      dof rx ry rz
   end
   begin
      id 29
      name RightFoot
      direction 0.000000 -0.258819 0.965926
      length 4.924528
      axis 15.0 0.0 0.0 xyz
      dof rx ry rz
   end
   begin
      id 30
      name RightToeBase
      direction 0.000000 0.000000 1.000000
      length 2.952750
      axis 0.0 0.0 0.0 xyz
      dof rx ry rz
   end
:hierarchy
   begin
      root Spine_dum LeftUpLeg_dum RightUpLeg_dum
      Spine_dum Spine
      LeftUpLeg_dum LeftUpLeg
      RightUpLeg_dum RightUpLeg
      Spine Spine_dum1 Spine_dum2 Spine_dum3
      Spine_dum1 Head
      Spine_dum2 LeftShoulder
      Spine_dum3 RightShoulder
      LeftShoulder LeftArm
      LeftArm LeftForeArm
      LeftForeArm LeftHand
      LeftHand LeftHand_dum1 LeftHand_dum2
      LeftHand_dum1 LeftHandThumb1
      RightShoulder RightArm
      RightArm RightForeArm
      RightForeArm RightHand
      RightHand RightHand_dum1 RightHand_dum2
      RightHand_dum1 RightHandThumb1
      LeftUpLeg LeftLeg
      LeftLeg LeftFoot
      LeftFoot LeftToeBase
      RightUpLeg RightLeg
      RightLeg RightFoot
      RightFoot RightToeBase
   end

# File created by Blade
# Date/Time:  Wed Jan 21 18:02:19 2015
# Frame Rate: 120.000 fps
#------------------------------------------------------
:FULLY-SPECIFIED
:DEGREES
129
root 20.589372 35.418192 -18.041135 -176.758636 3.067450 -178.715025
Spine -4.074748 4.059862 -2.898045
Head 7.257531 -1.637944 3.414272
LeftShoulder -7.988714 -18.065387 -4.594340
LeftArm -17.811671 4.008384 -73.652094
LeftForeArm 0.040305 0.000000 2.122714
LeftHand -2.099055 0.000000 -2.532073
LeftHandThumb1 -26.253704 0.000000 33.147579
RightShoulder -10.038377 -16.302995 10.244127
RightArm 9.686466 -3.753015 74.580435
RightForeArm -25.966475 -0.000000 17.211846
RightHand -2.037229 -0.000000 6.515625
RightHandThumb1 -24.326973 -0.000000 -32.862282
LeftUpLeg -12.333695 1.364904 1.827907
LeftLeg 20.571568 -0.000000 -0.000000
LeftFoot -28.414477 37.894969 -9.041316
LeftToeBase 11.947320 -0.000000 -0.000000
RightUpLeg 3.987710 -4.585569 7.397872
RightLeg 0.012736 -0.000000 -0.000000
RightFoot -24.379461 -19.571986 14.892249
RightToeBase 23.712884 -0.000000 -0.000000
130
root 20.629703 35.412866 -18.005763 -176.630793 2.950155 -178.685052
Spine -4.085303 3.875456 -2.844229
Head 6.854083 -1.516865 3.373545
LeftShoulder -8.084488 -17.866007 -4.510163
LeftArm -18.081449 4.276656 -73.980435
LeftForeArm 0.036530 -0.000000 2.243226
LeftHand -2.174441 -0.000000 -2.426271
LeftHandThumb1 -26.253704 0.000000 33.147579
RightShoulder -9.977713 -16.246385 10.167926
RightArm 9.579929 -3.572665 74.584659
RightForeArm -25.782735 0.000000 17.462157
RightHand -1.920298 -0.000000 6.244483
RightHandThumb1 -24.326973 -0.000000 -32.862282
LeftUpLeg -13.229509 1.129076 1.763486
LeftLeg 22.006766 -0.000000 -0.000000
LeftFoot -29.479509 37.613422 -9.640982
LeftToeBase 12.571316 -0.000000 -0.000000
RightUpLeg 4.017025 -4.468837 7.526749
RightLeg -0.383508 -0.000000 0.000000
RightFoot -24.223607 -19.793200 14.844513
RightToeBase 23.690100 -0.000000 -0.000000
131
root 20.666187 35.406756 -17.981042 -176.634906 2.851797 -178.667087
Spine -3.952455 3.768783 -2.808207
Head 6.455869 -1.500217 3.363468
LeftShoulder -8.077289 -17.764277 -4.416606
LeftArm -18.430796 4.484930 -74.318327
LeftForeArm 0.144051 0.000000 2.294096
LeftHand -2.082290 0.000000 -2.271587
LeftHandThumb1 -26.253704 0.000000 33.147579
RightShoulder -9.960509 -16.193127 10.132767
RightArm 9.554708 -3.541226 74.522734
RightForeArm -25.541181 -0.000000 17.689173
RightHand -2.038726 -0.000000 5.966414
RightHandThumb1 -24.326973 -0.000000 -32.862282
LeftUpLeg -13.965136 1.012988 1.651242
LeftLeg 23.416829 -0.000000 -0.000000
LeftFoot -30.260187 37.196015 -10.043998
LeftToeBase 12.716100 -0.000000 -0.000000
RightUpLeg 4.188410 -4.494280 7.612165
RightLeg -0.769367 -0.000000 0.000000
RightFoot -24.033557 -19.877988 14.725801
RightToeBase 23.681658 -0.000000 -0.000000
132
root 20.691905 35.405687 -17.960280 -176.621628 2.752000 -178.698482
Spine -3.866398 3.700172 -2.810046
Head 6.096123 -1.461452 3.334939
LeftShoulder -8.063731 -17.588894 -4.398698
LeftArm -18.663280 4.707370 -74.595560
LeftForeArm 0.137479 0.000000 2.327225
LeftHand -2.052533 -0.000000 -2.116870
LeftHandThumb1 -26.253704 0.000000 33.147579
RightShoulder -9.959047 -16.142871 10.148932
RightArm 9.532169 -3.468090 74.380060
RightForeArm -25.311945 -0.000000 17.887734
RightHand -1.973861 0.000000 5.666641
RightHandThumb1 -24.326973 -0.000000 -32.862282
LeftUpLeg -14.656697 0.806357 1.442263
LeftLeg 24.719795 -0.000000 -0.000000
LeftFoot -30.783496 36.786143 -10.380825
LeftToeBase 12.685173 -0.000000 -0.000000
RightUpLeg 4.322222 -4.418824 7.640091
RightLeg -1.112322 -0.000000 0.000000
RightFoot -23.896119 -20.040598 14.695104
RightToeBase 23.632726 -0.000000 -0.000000
133
root 20.716662 35.403476 -17.940937 -176.630038 2.664256 -178.739455
Spine -3.739703 3.634267 -2.826413
Head 5.694276 -1.428715 3.335206
LeftShoulder -8.082154 -17.436138 -4.324448
LeftArm -18.872356 4.735476 -74.821679
LeftForeArm 0.150366 0.000000 2.340922
LeftHand -2.014518 0.000000 -2.062138
LeftHandThumb1 -26.253704 0.000000 33.147579
RightShoulder -9.967428 -16.059556 10.170874
RightArm 9.572325 -3.397902 74.233506
RightForeArm -25.039970 -0.000000 18.024679
RightHand -2.053176 -0.000000 5.523845
RightHandThumb1 -24.326973 -0.000000 -32.862282
LeftUpLeg -15.303658 0.676033 1.208563
LeftLeg 25.956964 -0.000000 -0.000000
LeftFoot -31.324760 36.337384 -10.661122
LeftToeBase 12.898539 -0.000000 -0.000000
RightUpLeg 4.461760 -4.435864 7.651155
RightLeg -1.428398 -0.000000 0.000000
RightFoot -23.767728 -20.146338 14.615388
RightToeBase 23.629881 -0.000000 -0.000000
134
root 20.739201 35.402208 -17.924168 -176.651316 2.611232 -178.770628
Spine -3.606218 3.616528 -2.839268
Head 5.326026 -1.466467 3.359153
LeftShoulder -8.106715 -17.277873 -4.257386
LeftArm -19.026548 4.629372 -74.988097
LeftForeArm 0.186300 -0.000000 2.314398
LeftHand -1.934957 -0.000000 -2.041127
LeftHandThumb1 -26.253704 0.000000 33.147579
RightShoulder -9.946904 -15.964172 10.222561
RightArm 9.575340 -3.345832 74.039878
RightForeArm -24.895295 -0.000000 18.210731
RightHand -2.135350 -0.000000 5.317561
RightHandThumb1 -24.326973 -0.000000 -32.862282
LeftUpLeg -15.949415 0.616549 0.942603
LeftLeg 27.208921 -0.000000 -0.000000
LeftFoot -31.711192 35.950129 -10.864496
LeftToeBase 13.026317 -0.000000 -0.000000
RightUpLeg 4.594873 -4.414678 7.659563
RightLeg -1.693631 -0.000000 0.000000
RightFoot -23.649455 -20.236111 14.537804
RightToeBase 23.681076 -0.000000 -0.000000
135
root 20.758313 35.401809 -17.909137 -176.651647 2.510346 -178.820934
Spine -3.508427 3.568443 -2.876961
Head 5.017072 -1.454133 3.392873
LeftShoulder -8.116347 -17.214181 -4.157499
LeftArm -19.277334 4.488271 -75.148511
LeftForeArm 0.247229 0.000000 2.323464
LeftHand -2.048020 -0.000000 -2.006359
LeftHandThumb1 -26.253704 0.000000 33.147579
RightShoulder -9.935371 -15.834828 10.263105
RightArm 9.609968 -3.396304 73.838172
RightForeArm -24.745480 -0.000000 18.246438
RightHand -2.184633 -0.000000 5.005912
RightHandThumb1 -24.326973 -0.000000 -32.862282
LeftUpLeg -16.595074 0.544658 0.644108
LeftLeg 28.363837 -0.000000 -0.000000
LeftFoot -31.996719 35.554243 -11.037332
LeftToeBase 13.387664 -0.000000 -0.000000
RightUpLeg 4.695868 -4.436696 7.654890
RightLeg -1.940390 -0.000000 0.000000
RightFoot -23.566425 -20.341068 14.514250
RightToeBase 23.696768 -0.000000 -0.000000
136
root 20.771661 35.401982 -17.893897 -176.629288 2.478218 -178.866861
Spine -3.440979 3.636207 -2.885266
Head 4.695472 -1.524638 3.354904
LeftShoulder -8.128408 -17.127546 -4.100840
LeftArm -19.512285 5.068122 -75.519304
LeftForeArm -0.564907 -0.000000 2.385626
LeftHand -2.086626 -0.000000 -1.888081
LeftHandThumb1 -26.253704 0.000000 33.147579
RightShoulder -9.985543 -15.728313 10.311610
RightArm 9.723888 -3.394987 73.604624
RightForeArm -24.632050 -0.000000 18.248114
RightHand -2.157702 0.000000 4.840551
RightHandThumb1 -24.326973 -0.000000 -32.862282
LeftUpLeg -17.245043 0.542231 0.332057
LeftLeg 29.490566 -0.000000 -0.000000
LeftFoot -32.282370 34.969301 -11.340913
LeftToeBase 13.701474 -0.000000 -0.000000
RightUpLeg 4.792586 -4.273615 7.651811
RightLeg -2.230915 -0.000000 0.000000
RightFoot -23.519393 -20.507480 14.576873
RightToeBase 24.100242 -0.000000 -0.000000
137
root 20.787043 35.401286 -17.884793 -176.629983 2.437021 -178.921024
Spine -3.372025 3.707378 -2.921429
Head 4.404912 -1.594234 3.347797
LeftShoulder -8.129471 -17.025469 -3.999810
LeftArm -19.662498 5.008500 -75.679139
LeftForeArm -0.605485 0.000000 2.374909
LeftHand -2.162118 0.000000 -1.984351
LeftHandThumb1 -26.253704 0.000000 33.147579
RightShoulder -10.010286 -15.590930 10.342080
RightArm 9.819625 -3.416416 73.406293
RightForeArm -24.527444 -0.000000 18.187872
RightHand -2.189367 -0.000000 4.612908
RightHandThumb1 -24.326973 -0.000000 -32.862282
LeftUpLeg -17.814232 0.612702 -0.005120
LeftLeg 30.479337 -0.000000 -0.000000
LeftFoot -32.367197 34.432158 -11.432366
LeftToeBase 14.162697 -0.000000 -0.000000
RightUpLeg 4.825915 -4.437189 7.605944
RightLeg -2.321382 -0.000000 0.000000
RightFoot -23.403063 -20.405569 14.456551
RightToeBase 23.726492 -0.000000 -0.000000
138
root 20.803164 35.404015 -17.877267 -176.561064 2.389972 -178.983167
Spine -3.420258 3.801772 -2.999802
Head 4.188855 -1.714657 3.423834
LeftShoulder -8.099575 -16.980399 -3.888125
LeftArm -19.848931 4.720213 -75.710769
LeftForeArm -0.425754 -0.000000 2.289935
LeftHand -2.164634 0.000000 -2.121234
LeftHandThumb1 -26.253704 0.000000 33.147579
RightShoulder -10.083734 -15.534947 10.443751
RightArm 9.997141 -3.517145 73.149908
RightForeArm -24.471269 -0.000000 18.096745
RightHand -2.234919 -0.000000 4.440492
RightHandThumb1 -24.326973 -0.000000 -32.862282
LeftUpLeg -18.441966 0.705512 -0.364367
LeftLeg 31.381960 -0.000000 -0.000000
LeftFoot -32.454184 33.716119 -11.710170
LeftToeBase 14.738298 -0.000000 -0.000000
RightUpLeg 4.823791 -4.450860 7.571240
RightLeg -2.477239 -0.000000 0.000000
RightFoot -23.402385 -20.322576 14.530274
RightToeBase 24.177783 -0.000000 -0.000000
139
root 20.805011 35.404606 -17.843364 -176.134693 2.579672 -179.068544
Spine -3.915012 4.137443 -3.107296
Head 4.075804 -1.851592 3.437501
LeftShoulder -8.079594 -16.879508 -3.757171
LeftArm -20.019309 4.482380 -75.789475
LeftForeArm -0.293650 -0.000000 2.201949
LeftHand -2.288199 -0.000000 -2.255125
LeftHandThumb1 -26.253704 0.000000 33.147579
RightShoulder -10.190975 -15.521826 10.484470
RightArm 10.159255 -3.672611 72.911879
RightForeArm -24.429771 -0.000000 18.042369
RightHand -2.428338 0.000000 4.311005
RightHandThumb1 -24.326973 -0.000000 -32.862282
LeftUpLeg -19.423801 1.038215 -0.808345
LeftLeg 32.177557 -0.000000 -0.000000
LeftFoot -32.560651 33.008004 -12.089708
LeftToeBase 15.141987 -0.000000 -0.000000
RightUpLeg 4.365087 -4.628529 7.485603
RightLeg -2.531898 -0.000000 0.000000
RightFoot -23.264881 -19.985153 14.226533
RightToeBase 24.356324 -0.000000 -0.000000
